<?xml version="1.0" encoding="UTF-8" standalone="no"?>
<!DOCTYPE svg PUBLIC "-//W3C//DTD SVG 1.1//EN"
 "http://www.w3.org/Graphics/SVG/1.1/DTD/svg11.dtd">
<!-- Generated by graphviz version 2.36.0 (20140111.2315)
 -->
<!-- Title: G Pages: 1 -->
<svg width="822pt" height="1879pt"
 viewBox="0.00 0.00 822.00 1879.00" xmlns="http://www.w3.org/2000/svg" xmlns:xlink="http://www.w3.org/1999/xlink">
<g id="graph0" class="graph" transform="scale(1 1) rotate(0) translate(4 1875)">
<title>G</title>
<polygon fill="white" stroke="none" points="-4,4 -4,-1875 818,-1875 818,4 -4,4"/>
<g id="clust1" class="cluster"><title>cluster_Global</title>
<path fill="none" stroke="gray" d="M144,-314C144,-314 794,-314 794,-314 800,-314 806,-320 806,-326 806,-326 806,-1851 806,-1851 806,-1857 800,-1863 794,-1863 794,-1863 144,-1863 144,-1863 138,-1863 132,-1857 132,-1851 132,-1851 132,-326 132,-326 132,-320 138,-314 144,-314"/>
<text text-anchor="middle" x="469" y="-1850.2" font-family="Times,serif" font-size="11.00" fill="gray">Global</text>
</g>
<g id="clust2" class="cluster"><title>cluster_\Magento</title>
<path fill="none" stroke="gray" d="M152,-322C152,-322 786,-322 786,-322 792,-322 798,-328 798,-334 798,-334 798,-1824 798,-1824 798,-1830 792,-1836 786,-1836 786,-1836 152,-1836 152,-1836 146,-1836 140,-1830 140,-1824 140,-1824 140,-334 140,-334 140,-328 146,-322 152,-322"/>
<text text-anchor="middle" x="469" y="-1823.2" font-family="Times,serif" font-size="11.00" fill="gray">Magento</text>
</g>
<g id="clust3" class="cluster"><title>cluster_\Magento\Customer</title>
<path fill="none" stroke="gray" d="M160,-330C160,-330 778,-330 778,-330 784,-330 790,-336 790,-342 790,-342 790,-1797 790,-1797 790,-1803 784,-1809 778,-1809 778,-1809 160,-1809 160,-1809 154,-1809 148,-1803 148,-1797 148,-1797 148,-342 148,-342 148,-336 154,-330 160,-330"/>
<text text-anchor="middle" x="469" y="-1796.2" font-family="Times,serif" font-size="11.00" fill="gray">Customer</text>
</g>
<g id="clust4" class="cluster"><title>cluster_\Magento\Customer\Service</title>
<path fill="none" stroke="gray" d="M168,-338C168,-338 770,-338 770,-338 776,-338 782,-344 782,-350 782,-350 782,-1770 782,-1770 782,-1776 776,-1782 770,-1782 770,-1782 168,-1782 168,-1782 162,-1782 156,-1776 156,-1770 156,-1770 156,-350 156,-350 156,-344 162,-338 168,-338"/>
<text text-anchor="middle" x="469" y="-1769.2" font-family="Times,serif" font-size="11.00" fill="gray">Service</text>
</g>
<g id="clust5" class="cluster"><title>cluster_\Magento\Customer\Service\V1</title>
<path fill="none" stroke="gray" d="M176,-346C176,-346 762,-346 762,-346 768,-346 774,-352 774,-358 774,-358 774,-1743 774,-1743 774,-1749 768,-1755 762,-1755 762,-1755 176,-1755 176,-1755 170,-1755 164,-1749 164,-1743 164,-1743 164,-358 164,-358 164,-352 170,-346 176,-346"/>
<text text-anchor="middle" x="469" y="-1742.2" font-family="Times,serif" font-size="11.00" fill="gray">V1</text>
</g>
<g id="clust6" class="cluster"><title>cluster_\Magento\Customer\Service\V1\Data</title>
<path fill="none" stroke="gray" d="M592,-354C592,-354 754,-354 754,-354 760,-354 766,-360 766,-366 766,-366 766,-1510 766,-1510 766,-1516 760,-1522 754,-1522 754,-1522 592,-1522 592,-1522 586,-1522 580,-1516 580,-1510 580,-1510 580,-366 580,-366 580,-360 586,-354 592,-354"/>
<text text-anchor="middle" x="673" y="-1509.2" font-family="Times,serif" font-size="11.00" fill="gray">Data</text>
</g>
<g id="clust7" class="cluster"><title>cluster_\Magento\Customer\Service\V1\Data\Eav</title>
<path fill="none" stroke="gray" d="M612,-948C612,-948 734,-948 734,-948 740,-948 746,-954 746,-960 746,-960 746,-1277 746,-1277 746,-1283 740,-1289 734,-1289 734,-1289 612,-1289 612,-1289 606,-1289 600,-1283 600,-1277 600,-1277 600,-960 600,-960 600,-954 606,-948 612,-948"/>
<text text-anchor="middle" x="673" y="-1276.2" font-family="Times,serif" font-size="11.00" fill="gray">Eav</text>
</g>
<!-- \\Magento\\Customer\\Service\\V1\\Data\\Eav\\Option -->
<g id="node1" class="node"><title>\\Magento\\Customer\\Service\\V1\\Data\\Eav\\Option</title>
<polygon fill="none" stroke="black" points="700,-1262 646,-1262 646,-1226 700,-1226 700,-1262"/>
<text text-anchor="middle" x="673" y="-1240.7" font-family="Times,serif" font-size="11.00">Option</text>
</g>
<!-- \\Magento\\Framework\\Service\\Data\\AbstractObject -->
<g id="node32" class="node"><title>\\Magento\\Framework\\Service\\Data\\AbstractObject</title>
<ellipse fill="none" stroke="black" cx="258" cy="-288" rx="191.175" ry="18"/>
<text text-anchor="middle" x="258" y="-283.8" font-family="Times,serif" font-size="14.00" fill="gray">\Magento\Framework\Service\Data\AbstractObject</text>
</g>
<!-- \\Magento\\Customer\\Service\\V1\\Data\\Eav\\Option&#45;&gt;\\Magento\\Framework\\Service\\Data\\AbstractObject -->
<g id="edge6" class="edge"><title>\\Magento\\Customer\\Service\\V1\\Data\\Eav\\Option&#45;&gt;\\Magento\\Framework\\Service\\Data\\AbstractObject</title>
<path fill="none" stroke="black" d="M645.81,-1243.94C624.574,-1242.36 595.684,-1236.43 580,-1217 457.533,-1065.3 644.315,-488.787 516,-342 497.56,-320.906 473.164,-306.827 446.733,-297.611"/>
<polygon fill="none" stroke="black" points="447.503,-294.182 436.911,-294.432 445.347,-300.841 447.503,-294.182"/>
</g>
<!-- \\Magento\\Customer\\Service\\V1\\Data\\Eav\\OptionBuilder -->
<g id="node2" class="node"><title>\\Magento\\Customer\\Service\\V1\\Data\\Eav\\OptionBuilder</title>
<polygon fill="none" stroke="black" points="712.552,-1046 633.448,-1046 633.448,-1010 712.552,-1010 712.552,-1046"/>
<text text-anchor="middle" x="673" y="-1024.7" font-family="Times,serif" font-size="11.00">OptionBuilder</text>
</g>
<!-- \\Magento\\Framework\\Service\\Data\\AbstractObjectBuilder -->
<g id="node31" class="node"><title>\\Magento\\Framework\\Service\\Data\\AbstractObjectBuilder</title>
<ellipse fill="none" stroke="black" cx="258" cy="-234" rx="217.727" ry="18"/>
<text text-anchor="middle" x="258" y="-229.8" font-family="Times,serif" font-size="14.00" fill="gray">\Magento\Framework\Service\Data\AbstractObjectBuilder</text>
</g>
<!-- \\Magento\\Customer\\Service\\V1\\Data\\Eav\\OptionBuilder&#45;&gt;\\Magento\\Framework\\Service\\Data\\AbstractObjectBuilder -->
<g id="edge16" class="edge"><title>\\Magento\\Customer\\Service\\V1\\Data\\Eav\\OptionBuilder&#45;&gt;\\Magento\\Framework\\Service\\Data\\AbstractObjectBuilder</title>
<path fill="none" stroke="black" d="M633.339,-1026.47C614.358,-1023.59 592.861,-1016.72 580,-1001 475.469,-873.26 631.635,-378.783 516,-261 475.686,-219.937 411.252,-213.244 356.989,-216.789"/>
<polygon fill="none" stroke="black" points="356.683,-213.302 346.983,-217.564 357.223,-220.281 356.683,-213.302"/>
</g>
<!-- \\Magento\\Customer\\Service\\V1\\Data\\Eav\\AttributeMetadata -->
<g id="node3" class="node"><title>\\Magento\\Customer\\Service\\V1\\Data\\Eav\\AttributeMetadata</title>
<polygon fill="none" stroke="black" points="721.137,-1208 624.863,-1208 624.863,-1172 721.137,-1172 721.137,-1208"/>
<text text-anchor="middle" x="673" y="-1186.7" font-family="Times,serif" font-size="11.00">AttributeMetadata</text>
</g>
<!-- \\Magento\\Customer\\Service\\V1\\Data\\Eav\\AttributeMetadata&#45;&gt;\\Magento\\Framework\\Service\\Data\\AbstractObject -->
<g id="edge20" class="edge"><title>\\Magento\\Customer\\Service\\V1\\Data\\Eav\\AttributeMetadata&#45;&gt;\\Magento\\Framework\\Service\\Data\\AbstractObject</title>
<path fill="none" stroke="black" d="M624.749,-1186.97C608.135,-1183.42 590.907,-1176.44 580,-1163 464.71,-1020.89 636.768,-479.489 516,-342 497.51,-320.95 473.087,-306.894 446.646,-297.688"/>
<polygon fill="none" stroke="black" points="447.412,-294.257 436.82,-294.511 445.259,-300.918 447.412,-294.257"/>
</g>
<!-- \\Magento\\Customer\\Service\\V1\\Data\\Eav\\ValidationRuleBuilder -->
<g id="node4" class="node"><title>\\Magento\\Customer\\Service\\V1\\Data\\Eav\\ValidationRuleBuilder</title>
<polygon fill="none" stroke="black" points="730.484,-1100 615.516,-1100 615.516,-1064 730.484,-1064 730.484,-1100"/>
<text text-anchor="middle" x="673" y="-1078.7" font-family="Times,serif" font-size="11.00">ValidationRuleBuilder</text>
</g>
<!-- \\Magento\\Customer\\Service\\V1\\Data\\Eav\\ValidationRuleBuilder&#45;&gt;\\Magento\\Framework\\Service\\Data\\AbstractObjectBuilder -->
<g id="edge22" class="edge"><title>\\Magento\\Customer\\Service\\V1\\Data\\Eav\\ValidationRuleBuilder&#45;&gt;\\Magento\\Framework\\Service\\Data\\AbstractObjectBuilder</title>
<path fill="none" stroke="black" d="M615.165,-1076.5C601.762,-1072.48 588.823,-1065.85 580,-1055 468.297,-917.678 639.643,-387.678 516,-261 475.658,-219.668 410.898,-213.078 356.481,-216.741"/>
<polygon fill="none" stroke="black" points="356.14,-213.257 346.449,-217.538 356.694,-220.235 356.14,-213.257"/>
</g>
<!-- \\Magento\\Customer\\Service\\V1\\Data\\Eav\\AttributeMetadataBuilder -->
<g id="node5" class="node"><title>\\Magento\\Customer\\Service\\V1\\Data\\Eav\\AttributeMetadataBuilder</title>
<polygon fill="none" stroke="black" points="737.631,-992 608.369,-992 608.369,-956 737.631,-956 737.631,-992"/>
<text text-anchor="middle" x="673" y="-970.7" font-family="Times,serif" font-size="11.00">AttributeMetadataBuilder</text>
</g>
<!-- \\Magento\\Customer\\Service\\V1\\Data\\Eav\\AttributeMetadataBuilder&#45;&gt;\\Magento\\Framework\\Service\\Data\\AbstractObjectBuilder -->
<g id="edge23" class="edge"><title>\\Magento\\Customer\\Service\\V1\\Data\\Eav\\AttributeMetadataBuilder&#45;&gt;\\Magento\\Framework\\Service\\Data\\AbstractObjectBuilder</title>
<path fill="none" stroke="black" d="M608.329,-969.639C597.527,-966.107 587.422,-960.562 580,-952 478.987,-835.476 624.371,-370.714 516,-261 475.867,-220.37 412.101,-213.47 358.128,-216.802"/>
<polygon fill="none" stroke="black" points="357.537,-213.337 347.824,-217.568 358.056,-220.317 357.537,-213.337"/>
</g>
<!-- \\Magento\\Customer\\Service\\V1\\Data\\Eav\\ValidationRule -->
<g id="node6" class="node"><title>\\Magento\\Customer\\Service\\V1\\Data\\Eav\\ValidationRule</title>
<polygon fill="none" stroke="black" points="713.989,-1154 632.011,-1154 632.011,-1118 713.989,-1118 713.989,-1154"/>
<text text-anchor="middle" x="673" y="-1132.7" font-family="Times,serif" font-size="11.00">ValidationRule</text>
</g>
<!-- \\Magento\\Customer\\Service\\V1\\Data\\Eav\\ValidationRule&#45;&gt;\\Magento\\Framework\\Service\\Data\\AbstractObject -->
<g id="edge24" class="edge"><title>\\Magento\\Customer\\Service\\V1\\Data\\Eav\\ValidationRule&#45;&gt;\\Magento\\Framework\\Service\\Data\\AbstractObject</title>
<path fill="none" stroke="black" d="M631.915,-1134.27C613.281,-1131.26 592.521,-1124.35 580,-1109 471.884,-976.469 629.225,-470.194 516,-342 497.452,-321 473,-306.971 446.547,-297.775"/>
<polygon fill="none" stroke="black" points="447.309,-294.344 436.717,-294.602 445.158,-301.005 447.309,-294.344"/>
</g>
<!-- \\Magento\\Customer\\Service\\V1\\Data\\AddressBuilder -->
<g id="node7" class="node"><title>\\Magento\\Customer\\Service\\V1\\Data\\AddressBuilder</title>
<polygon fill="none" stroke="black" points="715.545,-668 630.455,-668 630.455,-632 715.545,-632 715.545,-668"/>
<text text-anchor="middle" x="673" y="-646.7" font-family="Times,serif" font-size="11.00">AddressBuilder</text>
</g>
<!-- \\Magento\\Framework\\Service\\Data\\Eav\\AbstractObjectBuilder -->
<g id="node30" class="node"><title>\\Magento\\Framework\\Service\\Data\\Eav\\AbstractObjectBuilder</title>
<ellipse fill="none" stroke="black" cx="258" cy="-180" rx="234.139" ry="18"/>
<text text-anchor="middle" x="258" y="-175.8" font-family="Times,serif" font-size="14.00" fill="gray">\Magento\Framework\Service\Data\Eav\AbstractObjectBuilder</text>
</g>
<!-- \\Magento\\Customer\\Service\\V1\\Data\\AddressBuilder&#45;&gt;\\Magento\\Framework\\Service\\Data\\Eav\\AbstractObjectBuilder -->
<g id="edge1" class="edge"><title>\\Magento\\Customer\\Service\\V1\\Data\\AddressBuilder&#45;&gt;\\Magento\\Framework\\Service\\Data\\Eav\\AbstractObjectBuilder</title>
<path fill="none" stroke="black" d="M630.02,-647.474C612.109,-644.195 592.498,-637.279 580,-623 456.795,-482.24 651.409,-336.064 516,-207 509.024,-200.351 501.41,-194.628 493.313,-189.722"/>
<polygon fill="none" stroke="black" points="494.782,-186.534 484.344,-184.714 491.369,-192.645 494.782,-186.534"/>
</g>
<!-- \\Magento\\Customer\\Service\\V1\\Data\\RegionBuilder -->
<g id="node8" class="node"><title>\\Magento\\Customer\\Service\\V1\\Data\\RegionBuilder</title>
<polygon fill="none" stroke="black" points="713.27,-938 632.73,-938 632.73,-902 713.27,-902 713.27,-938"/>
<text text-anchor="middle" x="673" y="-916.7" font-family="Times,serif" font-size="11.00">RegionBuilder</text>
</g>
<!-- \\Magento\\Customer\\Service\\V1\\Data\\RegionBuilder&#45;&gt;\\Magento\\Framework\\Service\\Data\\AbstractObjectBuilder -->
<g id="edge2" class="edge"><title>\\Magento\\Customer\\Service\\V1\\Data\\RegionBuilder&#45;&gt;\\Magento\\Framework\\Service\\Data\\AbstractObjectBuilder</title>
<path fill="none" stroke="black" d="M632.499,-918.246C613.775,-915.259 592.763,-908.366 580,-893 489.805,-784.41 615.63,-361.004 516,-261 475.916,-220.766 412.632,-213.721 358.893,-216.879"/>
<polygon fill="none" stroke="black" points="358.356,-213.409 348.631,-217.611 358.854,-220.391 358.356,-213.409"/>
</g>
<!-- \\Magento\\Customer\\Service\\V1\\Data\\CustomerGroup -->
<g id="node9" class="node"><title>\\Magento\\Customer\\Service\\V1\\Data\\CustomerGroup</title>
<polygon fill="none" stroke="black" points="716.382,-1495 629.618,-1495 629.618,-1459 716.382,-1459 716.382,-1495"/>
<text text-anchor="middle" x="673" y="-1473.7" font-family="Times,serif" font-size="11.00">CustomerGroup</text>
</g>
<!-- \\Magento\\Customer\\Service\\V1\\Data\\CustomerGroup&#45;&gt;\\Magento\\Framework\\Service\\Data\\AbstractObject -->
<g id="edge4" class="edge"><title>\\Magento\\Customer\\Service\\V1\\Data\\CustomerGroup&#45;&gt;\\Magento\\Framework\\Service\\Data\\AbstractObject</title>
<path fill="none" stroke="black" d="M629.381,-1475.01C611.342,-1471.84 591.807,-1464.86 580,-1450 426.552,-1256.92 676.893,-528.925 516,-342 497.788,-320.842 473.586,-306.716 447.301,-297.468"/>
<polygon fill="none" stroke="black" points="448.122,-294.055 437.53,-294.278 445.95,-300.709 448.122,-294.055"/>
</g>
<!-- \\Magento\\Customer\\Service\\V1\\Data\\Customer -->
<g id="node10" class="node"><title>\\Magento\\Customer\\Service\\V1\\Data\\Customer</title>
<polygon fill="none" stroke="black" points="702.276,-506 643.724,-506 643.724,-470 702.276,-470 702.276,-506"/>
<text text-anchor="middle" x="673" y="-484.7" font-family="Times,serif" font-size="11.00">Customer</text>
</g>
<!-- \\Magento\\Framework\\Service\\Data\\Eav\\AbstractObject -->
<g id="node33" class="node"><title>\\Magento\\Framework\\Service\\Data\\Eav\\AbstractObject</title>
<ellipse fill="none" stroke="black" cx="258" cy="-126" rx="207.587" ry="18"/>
<text text-anchor="middle" x="258" y="-121.8" font-family="Times,serif" font-size="14.00" fill="gray">\Magento\Framework\Service\Data\Eav\AbstractObject</text>
</g>
<!-- \\Magento\\Customer\\Service\\V1\\Data\\Customer&#45;&gt;\\Magento\\Framework\\Service\\Data\\Eav\\AbstractObject -->
<g id="edge5" class="edge"><title>\\Magento\\Customer\\Service\\V1\\Data\\Customer&#45;&gt;\\Magento\\Framework\\Service\\Data\\Eav\\AbstractObject</title>
<path fill="none" stroke="black" d="M643.483,-487.089C622.955,-484.87 596.14,-478.496 580,-461 485.2,-358.235 619.69,-246.788 516,-153 477.479,-118.158 421.238,-109.308 371.182,-110.066"/>
<polygon fill="none" stroke="black" points="370.83,-106.575 360.932,-110.355 371.026,-113.572 370.83,-106.575"/>
</g>
<!-- \\Magento\\Customer\\Service\\V1\\Data\\SearchResultsBuilder -->
<g id="node11" class="node"><title>\\Magento\\Customer\\Service\\V1\\Data\\SearchResultsBuilder</title>
<polygon fill="none" stroke="black" points="728.816,-452 617.184,-452 617.184,-416 728.816,-416 728.816,-452"/>
<text text-anchor="middle" x="673" y="-430.7" font-family="Times,serif" font-size="11.00">SearchResultsBuilder</text>
</g>
<!-- \\Magento\\Framework\\Service\\V1\\Data\\AbstractSearchResultsBuilder -->
<g id="node34" class="node"><title>\\Magento\\Framework\\Service\\V1\\Data\\AbstractSearchResultsBuilder</title>
<ellipse fill="none" stroke="black" cx="258" cy="-72" rx="257.818" ry="18"/>
<text text-anchor="middle" x="258" y="-67.8" font-family="Times,serif" font-size="14.00" fill="gray">\Magento\Framework\Service\V1\Data\AbstractSearchResultsBuilder</text>
</g>
<!-- \\Magento\\Customer\\Service\\V1\\Data\\SearchResultsBuilder&#45;&gt;\\Magento\\Framework\\Service\\V1\\Data\\AbstractSearchResultsBuilder -->
<g id="edge7" class="edge"><title>\\Magento\\Customer\\Service\\V1\\Data\\SearchResultsBuilder&#45;&gt;\\Magento\\Framework\\Service\\V1\\Data\\AbstractSearchResultsBuilder</title>
<path fill="none" stroke="black" d="M617.013,-428.014C603.274,-424.022 589.707,-417.522 580,-407 485.2,-304.235 619.69,-192.788 516,-99 510.339,-93.8792 504.294,-89.3198 497.943,-85.2699"/>
<polygon fill="none" stroke="black" points="499.492,-82.1199 489.099,-80.0581 495.938,-88.1506 499.492,-82.1199"/>
</g>
<!-- \\Magento\\Customer\\Service\\V1\\Data\\CustomerDetails -->
<g id="node12" class="node"><title>\\Magento\\Customer\\Service\\V1\\Data\\CustomerDetails</title>
<polygon fill="none" stroke="black" points="717.933,-1441 628.067,-1441 628.067,-1405 717.933,-1405 717.933,-1441"/>
<text text-anchor="middle" x="673" y="-1419.7" font-family="Times,serif" font-size="11.00">CustomerDetails</text>
</g>
<!-- \\Magento\\Customer\\Service\\V1\\Data\\CustomerDetails&#45;&gt;\\Magento\\Framework\\Service\\Data\\AbstractObject -->
<g id="edge8" class="edge"><title>\\Magento\\Customer\\Service\\V1\\Data\\CustomerDetails&#45;&gt;\\Magento\\Framework\\Service\\Data\\AbstractObject</title>
<path fill="none" stroke="black" d="M627.974,-1420.73C610.343,-1417.44 591.517,-1410.45 580,-1396 433.734,-1212.51 669.341,-519.62 516,-342 497.757,-320.869 473.539,-306.757 447.247,-297.515"/>
<polygon fill="none" stroke="black" points="448.066,-294.101 437.474,-294.327 445.895,-300.756 448.066,-294.101"/>
</g>
<!-- \\Magento\\Customer\\Service\\V1\\Data\\CustomerBuilder -->
<g id="node13" class="node"><title>\\Magento\\Customer\\Service\\V1\\Data\\CustomerBuilder</title>
<polygon fill="none" stroke="black" points="718.77,-614 627.23,-614 627.23,-578 718.77,-578 718.77,-614"/>
<text text-anchor="middle" x="673" y="-592.7" font-family="Times,serif" font-size="11.00">CustomerBuilder</text>
</g>
<!-- \\Magento\\Customer\\Service\\V1\\Data\\CustomerBuilder&#45;&gt;\\Magento\\Framework\\Service\\Data\\Eav\\AbstractObjectBuilder -->
<g id="edge11" class="edge"><title>\\Magento\\Customer\\Service\\V1\\Data\\CustomerBuilder&#45;&gt;\\Magento\\Framework\\Service\\Data\\Eav\\AbstractObjectBuilder</title>
<path fill="none" stroke="black" d="M626.854,-592.694C609.901,-589.164 591.88,-582.27 580,-569 471.025,-447.268 635.519,-318.398 516,-207 508.814,-200.303 500.978,-194.554 492.655,-189.639"/>
<polygon fill="none" stroke="black" points="494.267,-186.532 483.812,-184.816 490.915,-192.677 494.267,-186.532"/>
</g>
<!-- \\Magento\\Customer\\Service\\V1\\Data\\CustomerDetailsBuilder -->
<g id="node14" class="node"><title>\\Magento\\Customer\\Service\\V1\\Data\\CustomerDetailsBuilder</title>
<polygon fill="none" stroke="black" points="734.428,-776 611.572,-776 611.572,-740 734.428,-740 734.428,-776"/>
<text text-anchor="middle" x="673" y="-754.7" font-family="Times,serif" font-size="11.00">CustomerDetailsBuilder</text>
</g>
<!-- \\Magento\\Customer\\Service\\V1\\Data\\CustomerDetailsBuilder&#45;&gt;\\Magento\\Framework\\Service\\Data\\AbstractObjectBuilder -->
<g id="edge12" class="edge"><title>\\Magento\\Customer\\Service\\V1\\Data\\CustomerDetailsBuilder&#45;&gt;\\Magento\\Framework\\Service\\Data\\AbstractObjectBuilder</title>
<path fill="none" stroke="black" d="M611.271,-750.789C599.408,-746.701 588.141,-740.465 580,-731 442.529,-571.171 667.338,-407.767 516,-261 476.365,-222.562 415.443,-214.841 362.861,-217.187"/>
<polygon fill="none" stroke="black" points="362.591,-213.696 352.807,-217.76 362.99,-220.685 362.591,-213.696"/>
</g>
<!-- \\Magento\\Customer\\Service\\V1\\Data\\AddressConverter -->
<g id="node15" class="node"><title>\\Magento\\Customer\\Service\\V1\\Data\\AddressConverter</title>
<polygon fill="none" stroke="black" points="721.035,-722 624.965,-722 624.965,-686 721.035,-686 721.035,-722"/>
<text text-anchor="middle" x="673" y="-700.7" font-family="Times,serif" font-size="11.00">AddressConverter</text>
</g>
<!-- \\Magento\\Customer\\Service\\V1\\Data\\CustomerValidationResults -->
<g id="node16" class="node"><title>\\Magento\\Customer\\Service\\V1\\Data\\CustomerValidationResults</title>
<polygon fill="none" stroke="black" points="741.383,-1387 604.617,-1387 604.617,-1351 741.383,-1351 741.383,-1387"/>
<text text-anchor="middle" x="673" y="-1365.7" font-family="Times,serif" font-size="11.00">CustomerValidationResults</text>
</g>
<!-- \\Magento\\Customer\\Service\\V1\\Data\\CustomerValidationResults&#45;&gt;\\Magento\\Framework\\Service\\Data\\AbstractObject -->
<g id="edge13" class="edge"><title>\\Magento\\Customer\\Service\\V1\\Data\\CustomerValidationResults&#45;&gt;\\Magento\\Framework\\Service\\Data\\AbstractObject</title>
<path fill="none" stroke="black" d="M604.681,-1359.87C595.166,-1355.8 586.446,-1350.06 580,-1342 440.915,-1168.1 661.789,-510.316 516,-342 497.723,-320.899 473.486,-306.802 447.187,-297.567"/>
<polygon fill="none" stroke="black" points="448.004,-294.152 437.411,-294.38 445.834,-300.807 448.004,-294.152"/>
</g>
<!-- \\Magento\\Customer\\Service\\V1\\Data\\Region -->
<g id="node17" class="node"><title>\\Magento\\Customer\\Service\\V1\\Data\\Region</title>
<polygon fill="none" stroke="black" points="700,-1333 646,-1333 646,-1297 700,-1297 700,-1333"/>
<text text-anchor="middle" x="673" y="-1311.7" font-family="Times,serif" font-size="11.00">Region</text>
</g>
<!-- \\Magento\\Customer\\Service\\V1\\Data\\Region&#45;&gt;\\Magento\\Framework\\Service\\Data\\AbstractObject -->
<g id="edge14" class="edge"><title>\\Magento\\Customer\\Service\\V1\\Data\\Region&#45;&gt;\\Magento\\Framework\\Service\\Data\\AbstractObject</title>
<path fill="none" stroke="black" d="M645.921,-1316.49C624.753,-1316.13 595.9,-1311.82 580,-1293 443.283,-1131.22 654.938,-501.876 516,-342 497.688,-320.929 473.434,-306.848 447.127,-297.619"/>
<polygon fill="none" stroke="black" points="447.941,-294.203 437.349,-294.434 445.774,-300.859 447.941,-294.203"/>
</g>
<!-- \\Magento\\Customer\\Service\\V1\\Data\\SearchResults -->
<g id="node18" class="node"><title>\\Magento\\Customer\\Service\\V1\\Data\\SearchResults</title>
<polygon fill="none" stroke="black" points="712.321,-398 633.679,-398 633.679,-362 712.321,-362 712.321,-398"/>
<text text-anchor="middle" x="673" y="-376.7" font-family="Times,serif" font-size="11.00">SearchResults</text>
</g>
<!-- \\Magento\\Framework\\Service\\V1\\Data\\SearchResults -->
<g id="node35" class="node"><title>\\Magento\\Framework\\Service\\V1\\Data\\SearchResults</title>
<ellipse fill="none" stroke="black" cx="258" cy="-18" rx="201.348" ry="18"/>
<text text-anchor="middle" x="258" y="-13.8" font-family="Times,serif" font-size="14.00" fill="gray">\Magento\Framework\Service\V1\Data\SearchResults</text>
</g>
<!-- \\Magento\\Customer\\Service\\V1\\Data\\SearchResults&#45;&gt;\\Magento\\Framework\\Service\\V1\\Data\\SearchResults -->
<g id="edge15" class="edge"><title>\\Magento\\Customer\\Service\\V1\\Data\\SearchResults&#45;&gt;\\Magento\\Framework\\Service\\V1\\Data\\SearchResults</title>
<path fill="none" stroke="black" d="M669.748,-361.946C661.522,-304.422 627.494,-124.568 516,-45 501.729,-34.8153 485.826,-27.1109 469.121,-21.3669"/>
<polygon fill="none" stroke="black" points="469.79,-17.9068 459.2,-18.2075 467.666,-24.5768 469.79,-17.9068"/>
</g>
<!-- \\Magento\\Customer\\Service\\V1\\Data\\CustomerGroupBuilder -->
<g id="node19" class="node"><title>\\Magento\\Customer\\Service\\V1\\Data\\CustomerGroupBuilder</title>
<polygon fill="none" stroke="black" points="732.877,-884 613.123,-884 613.123,-848 732.877,-848 732.877,-884"/>
<text text-anchor="middle" x="673" y="-862.7" font-family="Times,serif" font-size="11.00">CustomerGroupBuilder</text>
</g>
<!-- \\Magento\\Customer\\Service\\V1\\Data\\CustomerGroupBuilder&#45;&gt;\\Magento\\Framework\\Service\\Data\\AbstractObjectBuilder -->
<g id="edge17" class="edge"><title>\\Magento\\Customer\\Service\\V1\\Data\\CustomerGroupBuilder&#45;&gt;\\Magento\\Framework\\Service\\Data\\AbstractObjectBuilder</title>
<path fill="none" stroke="black" d="M612.994,-859.578C600.445,-855.505 588.45,-849.076 580,-839 496.965,-739.977 607.635,-352.123 516,-261 476.027,-221.251 413.38,-214.017 359.946,-216.956"/>
<polygon fill="none" stroke="black" points="359.48,-213.479 349.738,-217.645 359.951,-220.463 359.48,-213.479"/>
</g>
<!-- \\Magento\\Customer\\Service\\V1\\Data\\Address -->
<g id="node20" class="node"><title>\\Magento\\Customer\\Service\\V1\\Data\\Address</title>
<polygon fill="none" stroke="black" points="700,-560 646,-560 646,-524 700,-524 700,-560"/>
<text text-anchor="middle" x="673" y="-538.7" font-family="Times,serif" font-size="11.00">Address</text>
</g>
<!-- \\Magento\\Customer\\Service\\V1\\Data\\Address&#45;&gt;\\Magento\\Framework\\Service\\Data\\Eav\\AbstractObject -->
<g id="edge18" class="edge"><title>\\Magento\\Customer\\Service\\V1\\Data\\Address&#45;&gt;\\Magento\\Framework\\Service\\Data\\Eav\\AbstractObject</title>
<path fill="none" stroke="black" d="M645.889,-541.477C624.995,-539.594 596.543,-533.479 580,-515 471.025,-393.268 635.519,-264.398 516,-153 476.694,-116.365 417.916,-108.099 366.489,-109.676"/>
<polygon fill="none" stroke="black" points="366.148,-106.187 356.309,-110.117 366.451,-113.181 366.148,-106.187"/>
</g>
<!-- \\Magento\\Customer\\Service\\V1\\Data\\CustomerValidationResultsBuilder -->
<g id="node21" class="node"><title>\\Magento\\Customer\\Service\\V1\\Data\\CustomerValidationResultsBuilder</title>
<polygon fill="none" stroke="black" points="757.877,-830 588.123,-830 588.123,-794 757.877,-794 757.877,-830"/>
<text text-anchor="middle" x="673" y="-808.7" font-family="Times,serif" font-size="11.00">CustomerValidationResultsBuilder</text>
</g>
<!-- \\Magento\\Customer\\Service\\V1\\Data\\CustomerValidationResultsBuilder&#45;&gt;\\Magento\\Framework\\Service\\Data\\AbstractObjectBuilder -->
<g id="edge21" class="edge"><title>\\Magento\\Customer\\Service\\V1\\Data\\CustomerValidationResultsBuilder&#45;&gt;\\Magento\\Framework\\Service\\Data\\AbstractObjectBuilder</title>
<path fill="none" stroke="black" d="M589.433,-793.772C585.979,-791.209 582.799,-788.301 580,-785 428.239,-606.073 683.294,-425.497 516,-261 476.105,-221.772 414.088,-214.357 360.971,-217.068"/>
<polygon fill="none" stroke="black" points="360.579,-213.586 350.821,-217.713 361.022,-220.572 360.579,-213.586"/>
</g>
<!-- \\Magento\\Customer\\Service\\V1\\CustomerAddressService -->
<g id="node22" class="node"><title>\\Magento\\Customer\\Service\\V1\\CustomerAddressService</title>
<polygon fill="none" stroke="black" points="736.81,-1728 609.19,-1728 609.19,-1692 736.81,-1692 736.81,-1728"/>
<text text-anchor="middle" x="673" y="-1706.7" font-family="Times,serif" font-size="11.00">CustomerAddressService</text>
</g>
<!-- \\Magento\\Customer\\Service\\V1\\CustomerAddressServiceInterface -->
<g id="node28" class="node"><title>\\Magento\\Customer\\Service\\V1\\CustomerAddressServiceInterface</title>
<polygon fill="none" stroke="black" points="341.385,-1728 174.615,-1728 174.615,-1692 341.385,-1692 341.385,-1728"/>
<text text-anchor="middle" x="258" y="-1706.7" font-family="Times,serif" font-size="11.00">CustomerAddressServiceInterface</text>
</g>
<!-- \\Magento\\Customer\\Service\\V1\\CustomerAddressService&#45;&gt;\\Magento\\Customer\\Service\\V1\\CustomerAddressServiceInterface -->
<g id="edge3" class="edge"><title>\\Magento\\Customer\\Service\\V1\\CustomerAddressService&#45;&gt;\\Magento\\Customer\\Service\\V1\\CustomerAddressServiceInterface</title>
<path fill="none" stroke="black" stroke-dasharray="1,5" d="M608.825,-1710C540.272,-1710 430.136,-1710 351.765,-1710"/>
<polygon fill="none" stroke="black" points="351.407,-1706.5 341.407,-1710 351.407,-1713.5 351.407,-1706.5"/>
</g>
<!-- \\Magento\\Customer\\Service\\V1\\CustomerGroupService -->
<g id="node23" class="node"><title>\\Magento\\Customer\\Service\\V1\\CustomerGroupService</title>
<polygon fill="none" stroke="black" points="732.866,-1674 613.134,-1674 613.134,-1638 732.866,-1638 732.866,-1674"/>
<text text-anchor="middle" x="673" y="-1652.7" font-family="Times,serif" font-size="11.00">CustomerGroupService</text>
</g>
<!-- \\Magento\\Customer\\Service\\V1\\CustomerGroupServiceInterface -->
<g id="node26" class="node"><title>\\Magento\\Customer\\Service\\V1\\CustomerGroupServiceInterface</title>
<polygon fill="none" stroke="black" points="337.441,-1674 178.559,-1674 178.559,-1638 337.441,-1638 337.441,-1674"/>
<text text-anchor="middle" x="258" y="-1652.7" font-family="Times,serif" font-size="11.00">CustomerGroupServiceInterface</text>
</g>
<!-- \\Magento\\Customer\\Service\\V1\\CustomerGroupService&#45;&gt;\\Magento\\Customer\\Service\\V1\\CustomerGroupServiceInterface -->
<g id="edge9" class="edge"><title>\\Magento\\Customer\\Service\\V1\\CustomerGroupService&#45;&gt;\\Magento\\Customer\\Service\\V1\\CustomerGroupServiceInterface</title>
<path fill="none" stroke="black" stroke-dasharray="1,5" d="M612.827,-1656C543.418,-1656 427.673,-1656 347.559,-1656"/>
<polygon fill="none" stroke="black" points="347.481,-1652.5 337.481,-1656 347.481,-1659.5 347.481,-1652.5"/>
</g>
<!-- \\Magento\\Customer\\Service\\V1\\CustomerAccountService -->
<g id="node24" class="node"><title>\\Magento\\Customer\\Service\\V1\\CustomerAccountService</title>
<polygon fill="none" stroke="black" points="737.524,-1620 608.476,-1620 608.476,-1584 737.524,-1584 737.524,-1620"/>
<text text-anchor="middle" x="673" y="-1598.7" font-family="Times,serif" font-size="11.00">CustomerAccountService</text>
</g>
<!-- \\Magento\\Customer\\Service\\V1\\CustomerAccountServiceInterface -->
<g id="node29" class="node"><title>\\Magento\\Customer\\Service\\V1\\CustomerAccountServiceInterface</title>
<polygon fill="none" stroke="black" points="342.099,-1620 173.901,-1620 173.901,-1584 342.099,-1584 342.099,-1620"/>
<text text-anchor="middle" x="258" y="-1598.7" font-family="Times,serif" font-size="11.00">CustomerAccountServiceInterface</text>
</g>
<!-- \\Magento\\Customer\\Service\\V1\\CustomerAccountService&#45;&gt;\\Magento\\Customer\\Service\\V1\\CustomerAccountServiceInterface -->
<g id="edge10" class="edge"><title>\\Magento\\Customer\\Service\\V1\\CustomerAccountService&#45;&gt;\\Magento\\Customer\\Service\\V1\\CustomerAccountServiceInterface</title>
<path fill="none" stroke="black" stroke-dasharray="1,5" d="M608.374,-1602C540.053,-1602 430.808,-1602 352.667,-1602"/>
<polygon fill="none" stroke="black" points="352.337,-1598.5 342.337,-1602 352.337,-1605.5 352.337,-1598.5"/>
</g>
<!-- \\Magento\\Customer\\Service\\V1\\CustomerMetadataService -->
<g id="node25" class="node"><title>\\Magento\\Customer\\Service\\V1\\CustomerMetadataService</title>
<polygon fill="none" stroke="black" points="739.182,-1566 606.818,-1566 606.818,-1530 739.182,-1530 739.182,-1566"/>
<text text-anchor="middle" x="673" y="-1544.7" font-family="Times,serif" font-size="11.00">CustomerMetadataService</text>
</g>
<!-- \\Magento\\Customer\\Service\\V1\\CustomerMetadataServiceInterface -->
<g id="node27" class="node"><title>\\Magento\\Customer\\Service\\V1\\CustomerMetadataServiceInterface</title>
<polygon fill="none" stroke="black" points="343.757,-1566 172.243,-1566 172.243,-1530 343.757,-1530 343.757,-1566"/>
<text text-anchor="middle" x="258" y="-1544.7" font-family="Times,serif" font-size="11.00">CustomerMetadataServiceInterface</text>
</g>
<!-- \\Magento\\Customer\\Service\\V1\\CustomerMetadataService&#45;&gt;\\Magento\\Customer\\Service\\V1\\CustomerMetadataServiceInterface -->
<g id="edge19" class="edge"><title>\\Magento\\Customer\\Service\\V1\\CustomerMetadataService&#45;&gt;\\Magento\\Customer\\Service\\V1\\CustomerMetadataServiceInterface</title>
<path fill="none" stroke="black" stroke-dasharray="1,5" d="M606.559,-1548C538.535,-1548 431.392,-1548 354.041,-1548"/>
<polygon fill="none" stroke="black" points="353.808,-1544.5 343.808,-1548 353.808,-1551.5 353.808,-1544.5"/>
</g>
</g>
</svg>
