<?xml version="1.0" encoding="UTF-8" standalone="no"?>
<!DOCTYPE svg PUBLIC "-//W3C//DTD SVG 1.1//EN"
 "http://www.w3.org/Graphics/SVG/1.1/DTD/svg11.dtd">
<!-- Generated by graphviz version 2.36.0 (20140111.2315)
 -->
<!-- Title: G Pages: 1 -->
<svg width="710pt" height="575pt"
 viewBox="0.00 0.00 710.00 575.00" xmlns="http://www.w3.org/2000/svg" xmlns:xlink="http://www.w3.org/1999/xlink">
<g id="graph0" class="graph" transform="scale(1 1) rotate(0) translate(4 571)">
<title>G</title>
<polygon fill="white" stroke="none" points="-4,4 -4,-571 706,-571 706,4 -4,4"/>
<g id="clust1" class="cluster"><title>cluster_Global</title>
<path fill="none" stroke="gray" d="M464,-8C464,-8 682,-8 682,-8 688,-8 694,-14 694,-20 694,-20 694,-547 694,-547 694,-553 688,-559 682,-559 682,-559 464,-559 464,-559 458,-559 452,-553 452,-547 452,-547 452,-20 452,-20 452,-14 458,-8 464,-8"/>
<text text-anchor="middle" x="573" y="-546.2" font-family="Times,serif" font-size="11.00" fill="gray">Global</text>
</g>
<g id="clust2" class="cluster"><title>cluster_\Magento</title>
<path fill="none" stroke="gray" d="M472,-16C472,-16 674,-16 674,-16 680,-16 686,-22 686,-28 686,-28 686,-520 686,-520 686,-526 680,-532 674,-532 674,-532 472,-532 472,-532 466,-532 460,-526 460,-520 460,-520 460,-28 460,-28 460,-22 466,-16 472,-16"/>
<text text-anchor="middle" x="573" y="-519.2" font-family="Times,serif" font-size="11.00" fill="gray">Magento</text>
</g>
<g id="clust3" class="cluster"><title>cluster_\Magento\Customer</title>
<path fill="none" stroke="gray" d="M480,-24C480,-24 666,-24 666,-24 672,-24 678,-30 678,-36 678,-36 678,-493 678,-493 678,-499 672,-505 666,-505 666,-505 480,-505 480,-505 474,-505 468,-499 468,-493 468,-493 468,-36 468,-36 468,-30 474,-24 480,-24"/>
<text text-anchor="middle" x="573" y="-492.2" font-family="Times,serif" font-size="11.00" fill="gray">Customer</text>
</g>
<g id="clust4" class="cluster"><title>cluster_\Magento\Customer\Service</title>
<path fill="none" stroke="gray" d="M488,-32C488,-32 658,-32 658,-32 664,-32 670,-38 670,-44 670,-44 670,-466 670,-466 670,-472 664,-478 658,-478 658,-478 488,-478 488,-478 482,-478 476,-472 476,-466 476,-466 476,-44 476,-44 476,-38 482,-32 488,-32"/>
<text text-anchor="middle" x="573" y="-465.2" font-family="Times,serif" font-size="11.00" fill="gray">Service</text>
</g>
<g id="clust5" class="cluster"><title>cluster_\Magento\Customer\Service\V1</title>
<path fill="none" stroke="gray" d="M496,-40C496,-40 650,-40 650,-40 656,-40 662,-46 662,-52 662,-52 662,-439 662,-439 662,-445 656,-451 650,-451 650,-451 496,-451 496,-451 490,-451 484,-445 484,-439 484,-439 484,-52 484,-52 484,-46 490,-40 496,-40"/>
<text text-anchor="middle" x="573" y="-438.2" font-family="Times,serif" font-size="11.00" fill="gray">V1</text>
</g>
<g id="clust6" class="cluster"><title>cluster_\Magento\Customer\Service\V1\Data</title>
<path fill="none" stroke="gray" d="M504,-48C504,-48 642,-48 642,-48 648,-48 654,-54 654,-60 654,-60 654,-412 654,-412 654,-418 648,-424 642,-424 642,-424 504,-424 504,-424 498,-424 492,-418 492,-412 492,-412 492,-60 492,-60 492,-54 498,-48 504,-48"/>
<text text-anchor="middle" x="573" y="-411.2" font-family="Times,serif" font-size="11.00" fill="gray">Data</text>
</g>
<g id="clust7" class="cluster"><title>cluster_\Magento\Customer\Service\V1\Data\Eav</title>
<path fill="none" stroke="gray" d="M512,-56C512,-56 634,-56 634,-56 640,-56 646,-62 646,-68 646,-68 646,-385 646,-385 646,-391 640,-397 634,-397 634,-397 512,-397 512,-397 506,-397 500,-391 500,-385 500,-385 500,-68 500,-68 500,-62 506,-56 512,-56"/>
<text text-anchor="middle" x="573" y="-384.2" font-family="Times,serif" font-size="11.00" fill="gray">Eav</text>
</g>
<!-- \\Magento\\Customer\\Service\\V1\\Data\\Eav\\AttributeMetadata -->
<g id="node1" class="node"><title>\\Magento\\Customer\\Service\\V1\\Data\\Eav\\AttributeMetadata</title>
<polygon fill="none" stroke="black" points="621.137,-370 524.863,-370 524.863,-334 621.137,-334 621.137,-370"/>
<text text-anchor="middle" x="573" y="-348.7" font-family="Times,serif" font-size="11.00">AttributeMetadata</text>
</g>
<!-- \\Magento\\Framework\\Service\\Data\\AbstractObject -->
<g id="node7" class="node"><title>\\Magento\\Framework\\Service\\Data\\AbstractObject</title>
<ellipse fill="none" stroke="black" cx="218" cy="-298" rx="191.175" ry="18"/>
<text text-anchor="middle" x="218" y="-293.8" font-family="Times,serif" font-size="14.00" fill="gray">\Magento\Framework\Service\Data\AbstractObject</text>
</g>
<!-- \\Magento\\Customer\\Service\\V1\\Data\\Eav\\AttributeMetadata&#45;&gt;\\Magento\\Framework\\Service\\Data\\AbstractObject -->
<g id="edge1" class="edge"><title>\\Magento\\Customer\\Service\\V1\\Data\\Eav\\AttributeMetadata&#45;&gt;\\Magento\\Framework\\Service\\Data\\AbstractObject</title>
<path fill="none" stroke="black" d="M524.759,-344.773C474.992,-337.16 394.875,-324.904 329.134,-314.848"/>
<polygon fill="none" stroke="black" points="329.544,-311.37 319.13,-313.317 328.486,-318.289 329.544,-311.37"/>
</g>
<!-- \\Magento\\Customer\\Service\\V1\\Data\\Eav\\Option -->
<g id="node2" class="node"><title>\\Magento\\Customer\\Service\\V1\\Data\\Eav\\Option</title>
<polygon fill="none" stroke="black" points="600,-316 546,-316 546,-280 600,-280 600,-316"/>
<text text-anchor="middle" x="573" y="-294.7" font-family="Times,serif" font-size="11.00">Option</text>
</g>
<!-- \\Magento\\Customer\\Service\\V1\\Data\\Eav\\Option&#45;&gt;\\Magento\\Framework\\Service\\Data\\AbstractObject -->
<g id="edge2" class="edge"><title>\\Magento\\Customer\\Service\\V1\\Data\\Eav\\Option&#45;&gt;\\Magento\\Framework\\Service\\Data\\AbstractObject</title>
<path fill="none" stroke="black" d="M545.756,-298C517.519,-298 469.848,-298 419.522,-298"/>
<polygon fill="none" stroke="black" points="419.426,-294.5 409.426,-298 419.426,-301.5 419.426,-294.5"/>
</g>
<!-- \\Magento\\Customer\\Service\\V1\\Data\\Eav\\OptionBuilder -->
<g id="node3" class="node"><title>\\Magento\\Customer\\Service\\V1\\Data\\Eav\\OptionBuilder</title>
<polygon fill="none" stroke="black" points="612.552,-100 533.448,-100 533.448,-64 612.552,-64 612.552,-100"/>
<text text-anchor="middle" x="573" y="-78.7" font-family="Times,serif" font-size="11.00">OptionBuilder</text>
</g>
<!-- \\Magento\\Framework\\Service\\Data\\AbstractObjectBuilder -->
<g id="node8" class="node"><title>\\Magento\\Framework\\Service\\Data\\AbstractObjectBuilder</title>
<ellipse fill="none" stroke="black" cx="218" cy="-136" rx="217.727" ry="18"/>
<text text-anchor="middle" x="218" y="-131.8" font-family="Times,serif" font-size="14.00" fill="gray">\Magento\Framework\Service\Data\AbstractObjectBuilder</text>
</g>
<!-- \\Magento\\Customer\\Service\\V1\\Data\\Eav\\OptionBuilder&#45;&gt;\\Magento\\Framework\\Service\\Data\\AbstractObjectBuilder -->
<g id="edge3" class="edge"><title>\\Magento\\Customer\\Service\\V1\\Data\\Eav\\OptionBuilder&#45;&gt;\\Magento\\Framework\\Service\\Data\\AbstractObjectBuilder</title>
<path fill="none" stroke="black" d="M533.213,-87.9334C485.245,-95.2713 401.481,-108.085 332.497,-118.638"/>
<polygon fill="none" stroke="black" points="331.788,-115.205 322.433,-120.177 332.847,-122.125 331.788,-115.205"/>
</g>
<!-- \\Magento\\Customer\\Service\\V1\\Data\\Eav\\ValidationRule -->
<g id="node4" class="node"><title>\\Magento\\Customer\\Service\\V1\\Data\\Eav\\ValidationRule</title>
<polygon fill="none" stroke="black" points="613.989,-262 532.011,-262 532.011,-226 613.989,-226 613.989,-262"/>
<text text-anchor="middle" x="573" y="-240.7" font-family="Times,serif" font-size="11.00">ValidationRule</text>
</g>
<!-- \\Magento\\Customer\\Service\\V1\\Data\\Eav\\ValidationRule&#45;&gt;\\Magento\\Framework\\Service\\Data\\AbstractObject -->
<g id="edge4" class="edge"><title>\\Magento\\Customer\\Service\\V1\\Data\\Eav\\ValidationRule&#45;&gt;\\Magento\\Framework\\Service\\Data\\AbstractObject</title>
<path fill="none" stroke="black" d="M531.85,-250.142C482.849,-257.638 397.999,-270.618 329.017,-281.17"/>
<polygon fill="none" stroke="black" points="328.316,-277.737 318.961,-282.709 329.375,-284.656 328.316,-277.737"/>
</g>
<!-- \\Magento\\Customer\\Service\\V1\\Data\\Eav\\AttributeMetadataBuilder -->
<g id="node5" class="node"><title>\\Magento\\Customer\\Service\\V1\\Data\\Eav\\AttributeMetadataBuilder</title>
<polygon fill="none" stroke="black" points="637.631,-154 508.369,-154 508.369,-118 637.631,-118 637.631,-154"/>
<text text-anchor="middle" x="573" y="-132.7" font-family="Times,serif" font-size="11.00">AttributeMetadataBuilder</text>
</g>
<!-- \\Magento\\Customer\\Service\\V1\\Data\\Eav\\AttributeMetadataBuilder&#45;&gt;\\Magento\\Framework\\Service\\Data\\AbstractObjectBuilder -->
<g id="edge5" class="edge"><title>\\Magento\\Customer\\Service\\V1\\Data\\Eav\\AttributeMetadataBuilder&#45;&gt;\\Magento\\Framework\\Service\\Data\\AbstractObjectBuilder</title>
<path fill="none" stroke="black" d="M508.074,-136C489.642,-136 468.399,-136 445.969,-136"/>
<polygon fill="none" stroke="black" points="445.938,-132.5 435.938,-136 445.938,-139.5 445.938,-132.5"/>
</g>
<!-- \\Magento\\Customer\\Service\\V1\\Data\\Eav\\ValidationRuleBuilder -->
<g id="node6" class="node"><title>\\Magento\\Customer\\Service\\V1\\Data\\Eav\\ValidationRuleBuilder</title>
<polygon fill="none" stroke="black" points="630.484,-208 515.516,-208 515.516,-172 630.484,-172 630.484,-208"/>
<text text-anchor="middle" x="573" y="-186.7" font-family="Times,serif" font-size="11.00">ValidationRuleBuilder</text>
</g>
<!-- \\Magento\\Customer\\Service\\V1\\Data\\Eav\\ValidationRuleBuilder&#45;&gt;\\Magento\\Framework\\Service\\Data\\AbstractObjectBuilder -->
<g id="edge6" class="edge"><title>\\Magento\\Customer\\Service\\V1\\Data\\Eav\\ValidationRuleBuilder&#45;&gt;\\Magento\\Framework\\Service\\Data\\AbstractObjectBuilder</title>
<path fill="none" stroke="black" d="M515.284,-181.324C466.177,-173.812 393.645,-162.716 332.639,-153.384"/>
<polygon fill="none" stroke="black" points="332.978,-149.895 322.564,-151.843 331.919,-156.815 332.978,-149.895"/>
</g>
</g>
</svg>
